<?xml version="1.0" encoding="UTF-8"?>
<svg id="Layer_1" data-name="Layer 1" xmlns="http://www.w3.org/2000/svg" version="1.1" viewBox="0 0 67.2 65.3">
  <defs>
    <style>
      .cls-1 {
        fill: #8f9093;
      }

      .cls-1, .cls-2 {
        stroke-width: 0px;
      }

      .cls-2 {
        fill: #272525;
      }
    </style>
  </defs>
  <path class="cls-1" d="M59.7.5C37.3,3.3,17.3,19.4,10.2,40.8c-2.4,6.9-3.4,14.2-3.1,21.4H0C.9,29.9,27.3,2.1,59.7.5h0Z"/>
  <path class="cls-1" d="M59.7,19.6c-14.9,2.6-27.9,13.9-32.3,28.3-1.5,4.6-2.1,9.5-1.8,14.3h-6c.8-21.9,18.3-40.9,40.2-42.6h0Z"/>
  <path class="cls-1" d="M59.7,40c-9.4,3-16,12.6-15.2,22.3,0,0-4,0-4,0,.5-10.7,8.7-20.4,19.2-22.3h0Z"/>
  <polygon class="cls-2" points="65.6 .2 67.1 62.2 67.1 63.7 65.6 63.7 0 65.2 0 59.2 65.6 60.7 64.1 62.2 65.6 .2 65.6 .2"/>
</svg>